<svg id="Layer_1" data-name="Layer 1" xmlns="http://www.w3.org/2000/svg" viewBox="0 0 16.6 19.66"><defs><style>.cls-1{fill:#fff;}.cls-2{fill:#9d3b14;}</style></defs><rect class="cls-1" x="3.2" y="4.73" width="10.19" height="10.19" rx="0.71"/><path class="cls-1" d="M12.32,14h-8a.58.58,0,0,1-.59-.58v-8a.58.58,0,0,1,.59-.58h8a.58.58,0,0,1,.58.58v8a.58.58,0,0,1-.58.58"/><path class="cls-2" d="M5,6h6.45c.18,0,.23,0,.23.22q0,3.17,0,6.32v.21H5.18c-.13,0-.19,0-.19-.18V6.12A.62.62,0,0,1,5,6Zm.17,3.37c0,1,0,2,0,3,0,.15,0,.21.19.21h6c.13,0,.18,0,.18-.18v-6c0-.15-.05-.19-.19-.19-2,0-4,0-5.93,0-.17,0-.2.06-.2.21C5.18,7.39,5.17,8.38,5.17,9.37Z"/><path class="cls-2" d="M10.5,11.26H6.09L8.3,7.44Z"/></svg>