<svg id="Layer_1" data-name="Layer 1" xmlns="http://www.w3.org/2000/svg" viewBox="0 0 16.6 19.66"><defs><style>.cls-1{fill:#fff;}.cls-2{fill:#0c8c45;}</style></defs><rect class="cls-1" x="3.2" y="4.73" width="10.19" height="10.19" rx="0.71"/><path class="cls-2" d="M9.68,6.88a1.89,1.89,0,0,1,.51,0,1.71,1.71,0,0,1,1.28.76,1.91,1.91,0,0,1,0,1.74A1.85,1.85,0,0,1,9.37,10,2.13,2.13,0,0,1,9,9.86a1.46,1.46,0,0,0-.33-.17,3.1,3.1,0,0,0,.59,2.73,1,1,0,0,0,1.2,0,1.13,1.13,0,0,0,.27-.65,3,3,0,0,1,.09-.81.54.54,0,0,1,.74-.3.9.9,0,0,1,.41.76,2.1,2.1,0,0,1-1.33,2.21,2.73,2.73,0,0,1-1.25.1,2.32,2.32,0,0,1-1.68-1.62,5,5,0,0,1-.08-2.89,2.06,2.06,0,0,0-1.1-.43.64.64,0,0,0-.68.64c0,.24.13.48.35.49s.41-.21.66-.15a.5.5,0,0,1,.31.35c.22.78-.57,1.25-1.29,1.08a1.46,1.46,0,0,1-1-.95,2.5,2.5,0,0,1-.14-.53,1.7,1.7,0,0,1,0-.22,1.69,1.69,0,0,1,0-.41,1.35,1.35,0,0,1,.09-.29,1.71,1.71,0,0,1,1-1A2.75,2.75,0,0,1,8,8.15,2.3,2.3,0,0,1,9.31,7l.37-.11M9.94,9c.48,0,.83-.33.64-.76s-.93-.4-1.28,0A1.71,1.71,0,0,0,9,8.64a2.21,2.21,0,0,0,.9.36"/></svg>