<svg id="Layer_1" data-name="Layer 1" xmlns="http://www.w3.org/2000/svg" viewBox="0 0 16.6 19.66"><defs><style>.cls-1{fill:#fff;}.cls-2{fill:#0c8c45;}</style></defs><path class="cls-1" d="M12.09,14.27H4.37a.58.58,0,0,1-.58-.58V6a.59.59,0,0,1,.58-.59h7.72a.6.6,0,0,1,.59.59v7.72a.59.59,0,0,1-.59.58"/><path class="cls-2" d="M11.66,8.6a1.86,1.86,0,0,0-1.8-1.91,1.81,1.81,0,0,0-1.56,1,.07.07,0,0,1-.14,0,1.79,1.79,0,0,0-1.56-1A1.86,1.86,0,0,0,4.8,8.6a2.19,2.19,0,0,0,.1.63,1.92,1.92,0,0,0,.34.61,1.34,1.34,0,0,0,.2.21l2.73,2.89a.09.09,0,0,0,.07,0l.06,0,2.83-3h0a1.81,1.81,0,0,0,.42-.69A2,2,0,0,0,11.66,8.6Z"/></svg>