<svg id="Layer_1" data-name="Layer 1" xmlns="http://www.w3.org/2000/svg" viewBox="0 0 16.6 19.66"><defs><style>.cls-1{fill:#fff;}.cls-2{fill:#0c8c45;}</style></defs><rect class="cls-1" x="3.11" y="4.64" width="10.37" height="10.37" rx="0.71"/><path class="cls-2" d="M12.07,6.22C12,6.76,12,7.37,11.89,8s-.15,1.35-.21,2a.26.26,0,0,0,.1.2,1.89,1.89,0,0,1,.66,1,1.6,1.6,0,0,1-1.8,1.85.47.47,0,0,0-.42.12,9.41,9.41,0,0,1-1.83,1.22.32.32,0,0,1-.27,0A7.74,7.74,0,0,1,5.66,12.6a3.87,3.87,0,0,1-.79-2c-.12-1-.21-2-.32-3,0-.49-.1-1-.16-1.47,0-.28,0-.38.31-.4l1.52-.1a2.91,2.91,0,0,0,1.23-.31A4.11,4.11,0,0,0,8,4.92c.15-.12.25-.14.38,0a2.58,2.58,0,0,0,1.85.76l1.47.1C12,5.8,12.09,5.85,12.07,6.22Zm-.82.35a.52.52,0,0,0-.15-.07l-.92-.06A3.64,3.64,0,0,1,8.37,5.9a.26.26,0,0,0-.27,0,5.93,5.93,0,0,1-1,.42c-.54.1-1.09.12-1.64.18-.22,0-.22,0-.2.25.12,1.18.25,2.36.37,3.54a3.39,3.39,0,0,0,.87,2.07,8.37,8.37,0,0,0,1.67,1.23.25.25,0,0,0,.22,0c.36-.23.72-.46,1.07-.7s.26-.19.09-.45a1.48,1.48,0,0,1-.11-1.58A1.55,1.55,0,0,1,10.76,10c.12,0,.15-.06.16-.17.06-.64.13-1.28.2-1.92C11.16,7.45,11.2,7,11.25,6.57ZM10,12.9c-.11-.15-.2-.18-.35-.07-.41.29-.84.57-1.26.85a.22.22,0,0,1-.27,0c-.38-.26-.77-.49-1.13-.75a3.43,3.43,0,0,1-1.45-2.55c-.07-.75-.15-1.5-.23-2.26l-.15-1.5c0-.17.05-.22.21-.22l.9,0A3.67,3.67,0,0,0,8.1,5.78a.2.2,0,0,1,.27,0,2.63,2.63,0,0,0,1.2.48c.44.06.89.1,1.34.13s.44,0,.4.44c-.09,1-.19,1.94-.29,2.9,0,.11,0,.21.12.23s.15-.1.16-.19c0-.38.07-.76.11-1.14.08-.77.17-1.53.25-2.3,0-.14,0-.2-.18-.2l-1.3-.07a3.1,3.1,0,0,1-1.82-.64.18.18,0,0,0-.26,0A2.58,2.58,0,0,1,6.81,6c-.58.07-1.16.1-1.74.14-.26,0-.28,0-.25.28.15,1.38.29,2.75.44,4.13a3.48,3.48,0,0,0,1.28,2.4c.5.39,1,.72,1.56,1.07a.23.23,0,0,0,.29,0l1.39-.92C9.85,13,9.91,13,10,12.9Zm2.08-1.36a1.21,1.21,0,1,0-1.19,1.18A1.21,1.21,0,0,0,12.06,11.54Z"/><path class="cls-2" d="M8.1,10.75a.85.85,0,0,1-.17-.1L6.76,9.44c-.11-.12-.08-.26.06-.29a.29.29,0,0,1,.23.07c.26.24.5.49.74.73l.1.1c.18.18.19.18.35,0l1.91-2.25c.09-.1.18-.26.35-.13s.1.18-.06.37L8.29,10.59A1.6,1.6,0,0,1,8.1,10.75Z"/><path class="cls-2" d="M11.64,11.54a1.52,1.52,0,0,1-.2.11.77.77,0,0,1-.26,0c-.16,0-.21.06-.2.2a1.21,1.21,0,0,1,0,.19c0,.08,0,.19-.11.2s-.12-.11-.12-.19a2.18,2.18,0,0,1,0-.25q0-.17-.15-.15a1.31,1.31,0,0,1-.28,0c-.06,0-.1-.08-.16-.12s.1-.1.16-.12a1.31,1.31,0,0,1,.28,0q.16,0,.15-.15a1.61,1.61,0,0,1,0-.31s.08-.09.13-.14.09.09.1.14a1.61,1.61,0,0,1,0,.31c0,.11,0,.16.16.16a1.08,1.08,0,0,1,.31,0A.78.78,0,0,1,11.64,11.54Z"/></svg>