<svg id="Layer_1" data-name="Layer 1" xmlns="http://www.w3.org/2000/svg" viewBox="0 0 86.55 71.23"><defs><style>.cls-1{fill:#cb5828;}.cls-2{fill:none;stroke:#0c8c45;stroke-width:0.25px;}.cls-2,.cls-3{stroke-miterlimit:10;}.cls-3{fill:#fff;stroke:#fff;stroke-width:0.15px;}</style></defs><path class="cls-1" d="M33.74,49.52a20.08,20.08,0,0,1-6.94-6.4,15.23,15.23,0,0,1-2.86-8.44c0-6.23,5.4-12.22,11.93-12.11,2.88.05,5.76,0,8.64,0a13.41,13.41,0,0,1,2.61.24A11.45,11.45,0,0,1,54.9,39.11a10.92,10.92,0,0,1-10.09,6.34c-2,0-4,0-6.06.08a4.36,4.36,0,0,0-4.2,3.18c-.12.33-.23.67-.35,1Z"/><path class="cls-2" d="M34.75,50.09a20,20,0,0,1-6.93-6.4A15.24,15.24,0,0,1,25,35.25C24.92,29,30.36,23,36.89,23.14c2.87.05,5.75,0,8.63,0a12.78,12.78,0,0,1,2.62.25,11.44,11.44,0,0,1,7.78,16.27A10.94,10.94,0,0,1,45.82,46c-2,0-4,0-6,.08a4.37,4.37,0,0,0-4.21,3.18c-.12.33-.23.67-.35,1Z"/><path class="cls-3" d="M31,40.32H31a.85.85,0,0,1-.31-.06,1,1,0,0,1-.74-.75c0-.06,0-.32,0-.78a39.57,39.57,0,0,1,.75-7.67c.23-1.73.89-2.59,2-2.59a1,1,0,0,1,1.05.94L34,31.1c.22,1.49.53,3,.91,4.5.14.49.24.74.31.74s.14-.24.18-.67q.57-3.35,1.7-7.67l.09-.48c.1-.79.39-1.18.88-1.18s.87.2.93.59a1.28,1.28,0,0,1-.11.48c-.26.78-.61,1.95-1.06,3.53a33.58,33.58,0,0,0-1.51,7.33,3.33,3.33,0,0,0,.09.75.42.42,0,0,1-.24.38,1.12,1.12,0,0,1-.55.14.91.91,0,0,1-.86-.52,13.11,13.11,0,0,1-2-5.57,18.54,18.54,0,0,0-.53-2.92s-.1.14-.18.41a28.35,28.35,0,0,0-.66,4.18c-.14,1.44-.22,2.53-.22,3.24a6.29,6.29,0,0,0,0,.7,1,1,0,0,0,.19.48,1,1,0,0,1,.16.34.4.4,0,0,1-.15.26A.62.62,0,0,1,31,40.32Z"/><path class="cls-3" d="M40.19,38.77c-1.49,0-2.24-.69-2.24-2.07,0-.12,0-.41.08-.86a5.76,5.76,0,0,1,.63-1.77c.65-1.29,1.35-1.94,2.1-1.94a1.49,1.49,0,0,1,1.38.91,1.23,1.23,0,0,1,.15.59,1.72,1.72,0,0,1-.22.79,6.79,6.79,0,0,1-2.38,2.4c-.27.13-.4.26-.4.4a.51.51,0,0,0,0,.17c.09.32.26.47.53.47a3,3,0,0,0,1.57-.72q.64-.47.93-.72a1,1,0,0,1,.55-.35.35.35,0,0,1,.21.07.47.47,0,0,1,.16.37,1.44,1.44,0,0,1-.3.69,4.08,4.08,0,0,1-1,1,2.7,2.7,0,0,1-1.23.58Zm-.56-3.08a2.64,2.64,0,0,0,.73-.93,4.19,4.19,0,0,0,.53-1.2q0-.12-.15-.12a.2.2,0,0,0-.16.07,16,16,0,0,0-1.1,2Q39.48,35.66,39.63,35.69Z"/><path class="cls-3" d="M44.07,38.69a1.4,1.4,0,0,1-.55-.12,1.14,1.14,0,0,1-.75-1.15,1.52,1.52,0,0,1,0-.23,26.81,26.81,0,0,1,1-3.9c.13-.38.32-.58.57-.58a1,1,0,0,1,.34,0,.61.61,0,0,1,.47.58,1.18,1.18,0,0,1-.06.36,17.77,17.77,0,0,0-.88,3.15c0,.06,0,.09,0,.09a19.09,19.09,0,0,0,2.07-3.47c.21-.39.44-.59.69-.59a.79.79,0,0,1,.29.06.64.64,0,0,1,.46.56,1.89,1.89,0,0,1-.1.55,10.74,10.74,0,0,0-.31,1.49,7.14,7.14,0,0,0-.11,1.09.88.88,0,0,0,.08.47c.13,0,.3-.16.53-.49a6.92,6.92,0,0,0,.7-1.3,4.5,4.5,0,0,0,.4-1.77,2,2,0,0,0-.43-1.33.77.77,0,0,1-.17-.4.33.33,0,0,1,.1-.22.31.31,0,0,1,.23-.12.63.63,0,0,1,.39.19,2.57,2.57,0,0,1,1,1.85l0,.66a4.8,4.8,0,0,1-.46,1.67c-.68,1.64-1.38,2.46-2.09,2.46a1.86,1.86,0,0,1-.42,0C46.35,38,46,37.63,46,37a1.43,1.43,0,0,1,0-.26s0-.07,0-.09l0,0s-.37.49-1.07,1.47A1.1,1.1,0,0,1,44.07,38.69Z"/></svg>