<svg id="Layer_1" data-name="Layer 1" xmlns="http://www.w3.org/2000/svg" viewBox="0 0 16.6 19.66"><defs><style>.cls-1{fill:#fff;}.cls-2{fill:#3a803f;}</style></defs><path class="cls-1" d="M12.28,14.4h-8a.59.59,0,0,1-.59-.58v-8a.59.59,0,0,1,.59-.58h8a.58.58,0,0,1,.59.58v8a.58.58,0,0,1-.59.58"/><path class="cls-2" d="M11,12.2h0c-1.9-.37-1.89-1.59-1.89-2.88a1.4,1.4,0,0,0-.43-1.11,1,1,0,0,1-1,.8,1,1,0,0,1-1-.78,1.48,1.48,0,0,0-.44,1,3.86,3.86,0,0,0,1.45,2.81,4,4,0,0,0,2.56.95A4.14,4.14,0,0,0,11,13a.4.4,0,0,0,.34-.38.41.41,0,0,0-.33-.4"/><path class="cls-2" d="M7.86,8.26s0-.1,0,0a.19.19,0,0,1,0-.08,1,1,0,0,1,0-.17.81.81,0,0,1,0-.16.15.15,0,0,1,0-.07s0,0,0-.05A1.57,1.57,0,0,1,8,7.37l0-.09v0l.09-.17A.25.25,0,0,0,8,6.75a.26.26,0,0,0-.34.09,2.33,2.33,0,0,0-.27,1.55.25.25,0,1,0,.48-.13Z"/></svg>